<?xml version="1.0" standalone="no"?>
<!DOCTYPE svg PUBLIC "-//W3C//DTD SVG 20010904//EN"
 "http://www.w3.org/TR/2001/REC-SVG-20010904/DTD/svg10.dtd">
<svg version="1.0" xmlns="http://www.w3.org/2000/svg"
 width="840.000000pt" height="840.000000pt" viewBox="0 0 840.000000 840.000000"
 preserveAspectRatio="xMidYMid meet">
<metadata>
Created by potrace 1.16, written by Peter Selinger 2001-2019
</metadata>
<g transform="translate(0.000000,840.000000) scale(0.100000,-0.100000)"
fill="#000000" stroke="none">
<path d="M3890 8390 c-704 -59 -1359 -276 -1932 -641 -507 -323 -956 -766
-1280 -1264 -598 -920 -811 -2045 -592 -3125 204 -997 761 -1878 1593 -2516
435 -333 1002 -601 1541 -728 1133 -266 2302 -64 3265 563 264 171 451 324
690 565 357 358 598 699 815 1149 289 602 423 1230 407 1907 -16 656 -166
1244 -467 1827 -267 516 -627 957 -1105 1352 -62 51 -195 148 -300 218 -558
372 -1181 599 -1865 678 -159 19 -618 27 -770 15z m-1336 -1419 c-4 -22 -10
-41 -15 -41 -4 0 -11 -16 -15 -35 -3 -19 -10 -35 -14 -35 -4 0 -14 -23 -20
-51 -7 -29 -19 -64 -26 -78 -8 -14 -14 -34 -14 -43 0 -10 -4 -18 -10 -18 -6 0
-10 -98 -10 -275 l0 -275 -30 0 c-16 0 -30 5 -30 10 0 6 -13 10 -29 10 -16 0
-36 3 -45 6 -19 7 -22 60 -4 66 6 2 13 30 16 61 2 31 8 57 12 57 4 0 10 35 14
77 4 43 11 82 16 88 4 5 10 39 13 75 8 98 17 133 43 157 13 12 24 30 24 41 0
10 7 27 15 38 8 10 15 26 15 35 0 9 7 22 15 29 8 7 17 27 21 46 3 19 10 34 14
34 4 0 11 12 15 27 6 25 25 47 33 39 1 -2 0 -22 -4 -45z m-1118 -6 c34 -22 57
-80 51 -127 -5 -35 -4 -38 18 -32 65 16 148 -41 161 -112 24 -129 -127 -268
-255 -233 -88 24 -161 68 -161 98 0 11 3 12 11 4 6 -6 17 -9 24 -6 8 2 24 -1
37 -8 21 -11 22 -11 9 4 -11 14 -11 17 0 17 8 -1 25 -7 39 -15 34 -19 104 -19
146 1 65 31 96 111 58 149 -25 24 -74 47 -90 41 -8 -3 -14 -1 -14 4 0 6 5 10
10 10 6 0 10 4 10 10 0 20 -26 -2 -37 -30 -6 -17 -16 -30 -23 -30 -6 0 -8 5
-5 10 3 6 1 10 -6 10 -8 0 -9 10 -5 32 6 31 6 31 -9 13 -16 -19 -16 -19 -10
10 18 86 18 91 -10 113 -35 28 -56 17 -80 -42 -15 -35 -22 -43 -32 -34 -10 8
-13 4 -13 -18 -1 -26 -2 -27 -11 -10 -17 28 -15 110 3 138 37 56 126 72 184
33z m3875 -83 c15 -15 41 -40 58 -56 17 -16 31 -33 31 -37 0 -11 -38 -22 -50
-14 -6 3 -7 -1 -4 -9 11 -28 -12 -17 -59 30 l-47 46 -45 -26 c-25 -15 -45 -30
-45 -34 0 -4 15 -14 33 -22 40 -19 77 -73 77 -115 0 -134 -149 -214 -276 -148
-50 26 -94 110 -94 181 0 28 5 52 10 52 6 0 10 -10 10 -22 0 -12 3 -18 8 -14
4 4 12 -9 19 -31 11 -37 11 -37 13 -8 1 29 2 28 18 -14 26 -67 64 -88 150 -82
30 2 62 36 62 66 0 31 -34 101 -52 108 -7 3 -3 6 10 6 14 1 21 5 16 12 -3 6
-19 9 -34 5 -36 -7 -59 16 -40 39 11 13 10 14 -4 9 -9 -3 -16 -2 -16 3 0 11
80 73 95 73 7 0 20 9 31 21 25 28 88 19 125 -19z m-2636 -208 c-3 -24 -10 -46
-16 -49 -5 -4 -9 -112 -9 -261 l0 -255 -62 3 -63 3 4 90 c2 50 7 93 12 96 5 3
12 40 15 82 4 42 10 77 14 77 4 0 10 27 13 59 4 38 18 80 37 116 16 30 30 64
30 75 0 11 5 20 10 20 6 0 11 8 11 18 1 10 4 7 6 -7 3 -13 2 -44 -2 -67z
m-735 -464 c11 -11 20 -29 20 -40 0 -11 7 -23 15 -26 8 -4 15 -12 15 -20 0 -7
10 -20 22 -28 21 -15 14 -16 -100 -16 -67 0 -122 4 -122 9 0 5 7 14 15 21 8 7
15 19 15 26 0 8 5 14 10 14 6 0 10 7 10 15 0 8 6 15 13 15 6 1 21 12 32 25 24
30 30 30 55 5z m465 -170 c6 -5 62 -14 125 -21 63 -7 118 -17 122 -22 3 -6 53
-12 110 -15 56 -3 106 -9 109 -14 4 -6 45 -12 93 -15 47 -3 86 -10 86 -14 0
-5 58 -9 129 -9 147 0 141 4 141 -89 0 -35 6 -65 15 -77 14 -18 14 -18 15 9 0
21 5 27 23 27 17 0 25 -8 32 -32 13 -42 35 -49 36 -11 1 23 2 24 6 6 3 -14 12
-23 23 -23 12 0 20 -8 22 -22 2 -13 10 -23 18 -23 11 0 15 12 15 50 0 29 5 53
12 58 8 5 13 30 13 61 0 47 3 54 23 60 12 3 111 6 219 6 120 0 199 4 203 10 8
12 145 13 145 1 0 -5 -29 -12 -65 -16 -36 -3 -65 -10 -65 -14 0 -5 -27 -11
-60 -14 -34 -3 -67 -10 -74 -16 -7 -6 -34 -14 -60 -17 -25 -4 -46 -11 -46 -15
0 -5 -27 -9 -61 -9 -60 0 -60 0 -57 -27 2 -20 9 -29 26 -31 12 -2 22 1 22 6 0
5 110 11 250 15 161 3 256 9 264 16 8 7 43 14 80 18 36 3 66 9 66 14 0 4 54 9
120 11 74 2 124 7 128 14 4 6 18 15 32 19 13 4 30 14 38 21 7 8 20 14 28 14 8
0 14 5 14 10 0 6 14 10 31 10 43 0 99 -59 106 -111 3 -22 9 -39 13 -39 5 0 11
-23 15 -51 l7 -51 39 6 c46 7 109 43 109 62 0 8 10 14 23 14 37 0 53 -50 37
-116 -7 -30 -17 -54 -21 -54 -4 0 -10 -13 -14 -30 -4 -16 -10 -30 -14 -30 -3
0 -15 -17 -26 -37 -10 -21 -47 -65 -82 -99 -55 -53 -63 -66 -63 -97 0 -21 -4
-37 -10 -37 -5 0 -10 -8 -10 -17 0 -10 -6 -30 -14 -45 -8 -15 -17 -41 -21 -58
-4 -17 -13 -34 -20 -36 -7 -3 -16 -20 -19 -39 -4 -18 -10 -35 -14 -37 -11 -5
-52 -66 -52 -78 0 -5 -4 -10 -9 -10 -5 0 -12 -8 -15 -17 -8 -21 -26 -53 -43
-73 -7 -8 -27 -33 -45 -55 -18 -21 -39 -46 -46 -55 -55 -66 -164 -169 -194
-185 -21 -11 -38 -23 -38 -26 0 -4 -13 -10 -30 -14 -16 -4 -30 -11 -30 -16 0
-5 -18 -12 -41 -15 -22 -4 -46 -13 -53 -20 -8 -7 -48 -16 -90 -20 -42 -4 -76
-11 -76 -15 0 -5 -27 -9 -60 -9 -33 0 -60 4 -60 9 0 5 -15 12 -33 15 -19 3
-46 20 -62 36 -16 17 -35 30 -42 30 -8 0 -16 8 -20 18 -3 9 -33 46 -65 82
-134 148 -132 146 -198 176 -44 21 -157 15 -174 -8 -6 -8 -22 -19 -36 -23 -13
-4 -64 -46 -112 -94 -48 -47 -106 -99 -128 -116 -23 -16 -49 -37 -58 -46 -9
-9 -38 -20 -64 -23 -26 -4 -50 -11 -53 -17 -10 -16 -227 -11 -249 6 -11 8 -32
15 -46 15 -15 0 -35 9 -45 20 -10 11 -26 20 -35 20 -10 0 -23 7 -30 15 -7 8
-17 15 -22 15 -5 0 -19 11 -32 25 -13 14 -27 25 -31 25 -12 0 -145 137 -145
149 0 6 -7 11 -15 11 -8 0 -15 7 -15 15 0 8 -4 15 -9 15 -10 0 -19 15 -65 108
-15 28 -31 52 -35 52 -5 0 -12 14 -16 30 -4 17 -11 30 -16 30 -5 0 -9 10 -9
23 0 12 -6 31 -14 42 -7 11 -17 35 -21 53 -3 17 -11 32 -16 32 -5 0 -9 13 -9
29 0 31 -18 41 -72 41 -24 0 -28 -4 -28 -30 0 -16 6 -33 13 -37 8 -4 17 -26
20 -47 4 -22 11 -42 16 -45 5 -4 13 -19 16 -34 4 -15 11 -27 15 -27 4 0 11
-16 14 -35 4 -19 11 -35 15 -35 5 0 12 -12 16 -27 3 -15 10 -30 13 -33 11 -8
52 -69 52 -77 1 -4 14 -19 30 -33 17 -13 30 -29 30 -35 0 -6 27 -37 60 -70 33
-33 60 -64 60 -70 0 -12 36 -45 48 -45 5 0 23 -16 42 -35 19 -19 42 -35 51
-35 10 0 21 -5 24 -10 4 -6 21 -17 38 -25 18 -8 39 -19 47 -24 33 -19 67 -30
117 -36 29 -4 55 -11 59 -16 7 -12 141 -12 149 1 3 5 28 12 55 16 27 4 51 13
54 20 3 8 14 14 24 14 11 0 25 7 32 15 7 8 18 15 25 15 7 0 15 7 19 15 3 8 11
15 19 15 7 0 26 14 42 30 16 17 33 30 38 30 6 0 24 13 41 30 60 57 114 100
125 100 6 0 11 5 11 10 0 6 6 10 14 10 7 0 19 7 26 15 14 17 90 21 90 5 0 -5
6 -10 14 -10 29 0 47 -30 40 -66 -5 -29 -4 -34 14 -34 11 0 25 -7 32 -15 7 -8
18 -15 25 -15 13 0 25 -21 25 -46 0 -20 -27 -18 -39 3 -8 15 -25 18 -106 18
-64 0 -98 -4 -103 -12 -4 -7 -26 -15 -49 -19 -23 -3 -44 -12 -47 -19 -2 -7
-27 -15 -55 -19 -27 -4 -53 -10 -55 -15 -3 -5 -22 -12 -41 -15 -19 -4 -35 -11
-35 -16 0 -4 -13 -11 -30 -15 -16 -4 -30 -11 -30 -16 0 -5 -14 -9 -30 -9 -17
0 -33 -6 -36 -14 -3 -8 -19 -18 -35 -21 -16 -4 -29 -11 -29 -16 0 -5 -11 -9
-25 -9 -14 0 -28 -7 -31 -15 -4 -8 -18 -15 -34 -15 -15 0 -33 -6 -39 -14 -7
-8 -27 -17 -46 -20 -19 -4 -35 -11 -35 -16 0 -6 -29 -10 -64 -10 -97 0 -196
54 -311 170 -65 66 -125 135 -125 144 0 4 -12 19 -27 35 -32 31 -47 53 -66 96
-8 17 -22 36 -31 44 -9 8 -24 28 -31 45 -17 35 -37 69 -47 76 -3 3 -10 18 -13
33 -4 15 -11 27 -15 27 -5 0 -11 13 -15 29 -3 16 -13 32 -21 35 -8 3 -14 16
-14 30 0 13 -6 26 -14 29 -7 3 -17 22 -20 42 -4 20 -18 57 -32 82 -13 26 -27
65 -31 87 -3 23 -9 43 -12 46 -9 7 -30 42 -41 68 -5 12 -14 22 -19 22 -5 0
-12 14 -16 30 -4 17 -11 30 -16 30 -5 0 -9 8 -9 18 0 9 -6 29 -14 44 -8 15
-17 40 -21 57 -4 17 -10 31 -15 31 -4 0 -11 16 -14 35 -5 25 -12 35 -26 35
-10 0 -22 5 -26 11 -7 12 25 79 38 79 5 0 8 7 8 15 0 9 7 18 15 21 8 4 15 12
15 19 0 8 7 21 16 30 19 19 64 12 77 -11 4 -8 15 -14 22 -14 8 0 15 -4 15 -10
0 -5 16 -12 35 -16 19 -3 38 -10 41 -15 3 -5 13 -9 23 -9 16 0 19 13 25 92 4
50 9 95 12 100 8 12 52 10 56 -4 3 -7 44 -13 119 -16 82 -3 116 -8 122 -18 5
-8 24 -14 47 -14 21 0 40 -5 42 -11 2 -6 25 -13 51 -16 26 -3 47 -9 47 -14 0
-4 27 -11 59 -15 37 -4 62 -12 65 -20 3 -9 21 -14 45 -14 22 0 41 -4 43 -8 4
-13 278 -24 278 -12 0 20 -38 47 -75 53 -21 3 -41 11 -45 17 -4 7 -26 14 -49
17 -22 3 -41 9 -41 14 0 4 -15 11 -32 14 -18 4 -37 11 -43 15 -5 4 -26 11 -45
15 -19 4 -39 10 -45 14 -5 4 -29 13 -52 21 -24 7 -43 16 -43 20 0 4 -20 11
-45 14 -25 4 -45 11 -45 16 0 5 -10 11 -22 13 -13 3 9 2 47 0 39 -3 75 -9 80
-13z m-995 -917 c0 -7 7 -10 17 -6 13 5 15 3 9 -13 -8 -19 -28 -131 -27 -149
8 -127 7 -146 -6 -141 -7 3 -13 0 -13 -7 -1 -7 -19 8 -41 33 -23 25 -33 33
-24 17 33 -52 8 -38 -41 23 -32 39 -81 82 -137 121 -98 65 -135 74 -161 37
-19 -27 -21 -99 -4 -116 7 -7 8 -12 2 -12 -6 0 -15 5 -22 12 -8 8 -12 9 -12 1
0 -6 14 -23 31 -37 17 -15 24 -26 16 -26 -35 0 -92 75 -102 135 -8 51 23 101
79 129 37 18 41 18 99 2 68 -19 180 -89 225 -140 17 -19 33 -32 36 -29 3 4 6
33 6 65 0 32 4 66 10 76 5 9 15 30 20 46 10 28 11 28 25 10 8 -10 15 -24 15
-31z m584 -674 c3 -21 11 -39 16 -39 6 0 10 -12 10 -28 0 -15 6 -36 14 -47 7
-11 17 -35 21 -52 3 -18 10 -33 15 -33 5 0 12 -15 15 -32 4 -18 11 -37 15 -43
4 -5 11 -26 15 -45 4 -19 14 -44 21 -55 8 -11 14 -28 14 -38 0 -10 7 -25 15
-33 8 -9 15 -26 15 -39 0 -13 5 -25 12 -27 6 -2 8 -10 4 -17 -6 -9 -12 -8 -27
5 -10 9 -19 23 -19 31 0 7 -4 13 -10 13 -5 0 -10 8 -10 18 0 9 -6 29 -14 43
-7 14 -19 49 -26 78 -6 28 -15 51 -20 51 -4 0 -10 23 -14 50 -4 28 -11 50 -16
50 -5 0 -12 16 -16 35 -3 19 -12 39 -20 46 -8 6 -14 24 -14 39 0 16 -4 30 -9
32 -5 2 -12 22 -16 46 -6 35 -4 41 8 36 8 -3 17 -23 21 -45z m1296 -58 c0 -5
-11 -12 -25 -15 -14 -4 -25 -10 -25 -15 0 -5 -13 -12 -29 -16 -16 -3 -32 -13
-35 -21 -3 -8 -12 -14 -21 -14 -8 0 -15 -3 -15 -8 0 -4 -9 -12 -19 -17 -11 -6
-61 -31 -111 -57 -50 -27 -98 -48 -106 -48 -8 0 -14 -4 -14 -10 0 -5 -12 -13
-27 -16 -32 -8 -53 -27 -53 -46 0 -14 44 -38 69 -38 9 0 23 -5 31 -10 13 -9
13 -11 0 -20 -8 -5 -29 -10 -47 -10 -17 0 -33 -5 -35 -11 -2 -5 -24 -13 -48
-16 -25 -3 -54 -12 -65 -19 -11 -8 -30 -14 -42 -14 -13 0 -23 -4 -23 -10 0 -5
-8 -10 -19 -10 -27 0 -71 -45 -71 -73 0 -58 -13 -117 -26 -117 -8 0 -14 7 -14
15 0 8 -4 15 -10 15 -5 0 -10 6 -10 14 0 8 -6 21 -12 28 -7 7 -24 35 -38 61
-13 26 -28 47 -31 47 -4 0 -10 8 -13 18 -4 9 -18 35 -31 57 -14 22 -27 47 -31
55 -3 8 -10 22 -15 30 -5 8 -13 25 -19 38 -5 12 -14 22 -19 22 -5 0 -12 13
-16 29 -3 16 -13 32 -21 35 -8 3 -14 16 -13 28 0 13 3 17 6 11 2 -7 10 -13 16
-13 6 0 40 -28 74 -62 l64 -63 127 -3 127 -3 110 56 c60 31 119 64 130 75 11
10 37 22 58 25 21 4 41 14 44 21 3 8 16 14 29 14 14 0 27 6 30 14 3 7 24 17
47 20 23 4 44 12 48 17 3 6 25 13 48 16 22 3 41 10 41 14 0 5 11 9 25 9 14 0
25 -4 25 -9z m2520 -124 c0 -1 -9 -34 -19 -72 -11 -39 -24 -89 -30 -112 l-12
-42 -111 -3 -112 -3 -96 -363 c-53 -199 -99 -364 -102 -367 -3 -3 -70 -4 -150
-3 l-145 3 93 347 c51 190 95 356 99 367 6 20 3 21 -104 21 -61 0 -111 3 -111
8 0 7 47 184 55 210 3 9 87 12 375 12 203 0 370 -1 370 -3z m364 -24 c-4 -16
-26 -98 -49 -183 l-41 -155 69 -3 c38 -2 71 -1 74 1 2 3 25 85 51 183 l48 179
147 3 c96 2 147 -1 147 -8 0 -5 -56 -222 -125 -480 -69 -258 -125 -472 -125
-475 0 -3 -68 -5 -150 -5 l-150 0 5 23 c3 12 25 94 49 182 l43 160 -70 3 c-38
2 -71 1 -73 -1 -2 -2 -25 -84 -51 -183 l-48 -179 -148 -3 c-81 -1 -147 1 -147
5 0 5 57 223 126 486 l127 477 149 0 148 0 -6 -27z m1262 10 c-9 -30 -34 -126
-46 -170 l-11 -43 -224 0 c-173 0 -225 -3 -225 -12 0 -7 -3 -23 -6 -35 l-6
-23 221 0 221 0 -7 -27 c-3 -16 -16 -64 -28 -108 l-22 -80 -224 -5 -223 -5 -7
-25 c-15 -52 -24 -50 211 -50 l220 0 -6 -27 c-4 -16 -17 -64 -29 -108 l-21
-80 -373 -3 c-360 -2 -372 -2 -367 16 4 11 51 190 106 398 55 208 103 385 105
392 3 9 88 12 375 12 349 0 371 -1 366 -17z m-5196 -198 c23 -47 47 -85 51
-85 5 0 9 -6 9 -14 0 -7 7 -19 15 -26 8 -7 15 -21 15 -32 0 -10 6 -21 14 -24
8 -3 17 -16 20 -30 4 -13 11 -24 16 -24 6 0 10 -7 10 -15 0 -9 7 -18 15 -21 8
-4 15 -12 15 -20 0 -24 -34 -15 -60 16 -14 17 -30 30 -36 30 -18 0 -43 34 -50
68 -4 18 -10 32 -15 32 -5 0 -9 8 -9 18 0 9 -9 34 -20 55 -11 20 -20 46 -20
56 0 11 -5 21 -11 23 -5 2 -13 23 -16 47 -8 61 6 48 57 -54z m1937 31 c-9 -9
-21 -16 -27 -16 -6 0 -13 -7 -16 -15 -4 -8 -12 -15 -20 -15 -7 0 -28 -16 -47
-35 -19 -19 -38 -35 -42 -35 -4 0 -17 -10 -29 -22 -21 -23 -56 -49 -107 -80
-30 -18 -87 -26 -106 -15 -10 6 -116 -16 -203 -42 -53 -16 -135 -21 -172 -10
-101 31 -114 31 -127 2 -11 -24 1 -104 20 -129 5 -6 13 -42 19 -80 9 -65 13
-87 25 -134 3 -11 8 -30 11 -42 3 -13 8 -36 10 -53 3 -16 12 -40 20 -52 8 -13
11 -23 7 -23 -13 0 40 -34 56 -35 9 -1 23 -5 31 -8 8 -3 31 -5 50 -3 19 1 47
-1 61 -5 15 -4 32 -3 40 1 14 9 49 -5 49 -19 0 -5 -10 -8 -22 -7 -13 1 -48 -4
-79 -11 -52 -11 -94 -11 -162 0 -22 4 -28 1 -33 -17 -3 -12 -4 -26 -3 -32 5
-16 -12 -54 -24 -54 -17 1 -50 30 -76 68 -20 29 -23 47 -26 180 -2 81 -8 162
-14 180 -5 18 -8 39 -5 46 3 8 -2 42 -11 77 -10 35 -17 75 -17 89 0 14 -6 51
-14 83 -8 33 -16 80 -17 105 -1 47 -1 47 30 45 18 -2 48 -12 67 -24 20 -12 36
-18 36 -15 0 4 9 2 21 -4 24 -14 54 -21 94 -24 17 -1 35 -5 41 -9 12 -7 29 -5
129 19 39 10 81 24 94 33 13 8 30 16 37 17 7 1 26 11 41 22 45 32 201 51 195
24 -3 -16 47 -5 66 15 7 7 20 13 29 13 9 0 26 11 39 25 12 13 34 27 48 31 14
3 26 11 26 17 0 8 3 8 11 0 9 -9 8 -16 -4 -27z m-1553 -491 c13 -14 27 -25 33
-25 5 0 20 -13 33 -30 14 -16 30 -29 36 -30 6 0 19 -9 29 -20 10 -11 22 -20
27 -20 5 0 19 -11 32 -25 13 -14 28 -25 33 -25 5 0 18 -9 28 -20 10 -11 23
-20 28 -20 6 0 17 -7 26 -15 38 -35 89 -75 96 -75 5 0 15 -7 24 -15 35 -33
103 -85 112 -85 5 0 9 -7 9 -15 0 -8 7 -15 15 -15 9 0 15 -9 15 -25 0 -14 -5
-25 -11 -25 -7 0 -22 11 -35 25 -13 14 -28 25 -34 25 -5 0 -10 7 -10 15 0 8
-7 15 -15 15 -8 0 -23 9 -32 20 -10 11 -21 20 -26 20 -4 0 -20 11 -35 24 -15
14 -52 47 -83 75 -31 28 -60 51 -65 51 -6 0 -21 13 -34 30 -14 16 -30 29 -36
30 -5 0 -23 14 -39 30 -16 17 -34 30 -39 30 -6 0 -22 14 -36 30 -14 17 -29 30
-34 30 -12 0 -56 41 -56 52 0 16 21 8 44 -17z m4576 -222 c0 -5 -13 -55 -28
-113 l-29 -105 -372 -3 c-352 -2 -372 -1 -367 15 8 30 34 126 46 171 l11 42
369 0 c204 0 370 -3 370 -7z m-2690 -575 c0 -6 -12 -56 -26 -110 l-27 -98
-223 0 -222 0 -11 -32 c-5 -18 -35 -130 -67 -248 -31 -118 -58 -220 -61 -227
-4 -10 13 -13 70 -13 l74 0 17 58 c21 77 21 82 -12 82 -37 0 -42 6 -32 38 5
15 19 64 31 110 l21 82 184 0 c137 0 184 -3 184 -12 0 -7 -34 -142 -77 -300
l-76 -288 -374 0 c-352 0 -374 1 -369 18 3 9 59 222 126 472 66 250 123 461
125 468 6 17 745 18 745 0z m820 5 c0 -5 -12 -54 -26 -110 l-27 -103 -223 0
c-123 0 -225 -3 -227 -7 -3 -5 -8 -23 -12 -40 l-7 -33 221 0 c122 0 221 -3
221 -7 0 -5 -12 -54 -26 -110 l-27 -103 -223 0 c-123 0 -225 -3 -227 -7 -3 -5
-8 -23 -12 -40 l-7 -33 221 0 c122 0 221 -3 221 -7 0 -5 -12 -54 -26 -110
l-27 -103 -374 0 c-205 0 -373 2 -373 4 0 6 209 789 215 804 3 9 88 12 375 12
203 0 370 -3 370 -7z m817 -15 c-4 -13 -52 -197 -109 -410 l-103 -388 -147 0
c-112 0 -148 3 -148 13 0 6 11 52 25 102 14 49 25 93 25 97 0 5 -33 8 -73 8
l-72 0 -29 -110 -28 -110 -150 0 c-143 0 -150 1 -145 19 2 11 51 195 108 410
l104 391 374 0 373 0 -5 -22z m823 17 c0 -5 -62 -238 -85 -320 -12 -44 -23
-57 -84 -104 l-69 -54 40 -58 40 -57 -47 -178 c-26 -99 -50 -182 -54 -187 -4
-4 -73 -6 -153 -5 l-144 3 47 175 c27 96 48 178 49 183 0 4 -33 7 -73 7 l-73
0 -49 -185 -48 -185 -149 0 c-81 0 -148 3 -148 8 0 4 57 222 127 485 l128 477
372 0 c205 0 373 -2 373 -5z m-3697 -119 c3 4 9 -7 12 -22 11 -48 13 -51 14
-14 1 21 5 30 10 25 12 -12 15 -165 5 -257 -7 -69 5 -100 34 -90 29 9 -15 -87
-61 -133 -15 -14 -18 -14 -38 6 -18 18 -21 32 -20 97 0 68 9 391 10 401 1 2 7
-2 14 -8 8 -6 17 -8 20 -5z m1817 -777 c0 -6 -12 -58 -27 -115 l-27 -104 -373
0 c-205 0 -373 4 -373 8 0 5 6 31 14 58 8 27 21 75 30 107 l17 57 369 0 c265
0 370 -3 370 -11z m820 4 c0 -5 -12 -56 -27 -115 l-28 -108 -372 0 c-205 0
-373 3 -373 8 0 7 47 184 55 210 3 9 87 12 375 12 203 0 370 -3 370 -7z
m-3034 -500 c-4 -16 -16 -63 -28 -105 l-20 -78 -104 0 -104 0 6 25 c6 24 5 25
-44 25 l-50 0 -11 -44 c-6 -25 -11 -47 -11 -50 0 -3 68 -6 151 -6 l151 0 -5
-22 c-3 -13 -27 -105 -54 -205 l-48 -183 -258 0 -257 0 6 28 c4 15 17 61 28
102 l22 75 103 3 103 3 -6 -26 c-6 -24 -5 -25 43 -25 49 0 50 1 60 38 19 65
25 62 -140 62 -138 0 -150 1 -145 18 2 9 25 96 51 192 25 96 48 181 50 188 3
9 65 12 261 12 l256 0 -6 -27z m260 10 c-3 -10 -18 -69 -35 -131 l-30 -113 51
3 51 3 27 100 c15 55 30 112 34 128 l6 27 106 0 c88 0 105 -2 101 -14 -3 -8
-38 -135 -77 -283 -39 -147 -78 -292 -86 -320 l-15 -53 -104 0 -103 0 29 108
c16 59 32 117 35 130 6 21 3 22 -45 22 -47 0 -51 -2 -57 -27 -4 -16 -19 -73
-34 -128 l-27 -100 -101 -3 c-72 -2 -102 1 -102 9 0 6 39 157 87 335 l87 324
103 0 c95 0 104 -2 99 -17z m563 0 c0 -10 -33 -137 -72 -283 l-72 -265 -102
-3 c-57 -1 -103 1 -103 5 0 7 136 523 145 551 3 8 33 12 105 12 89 0 100 -2
99 -17z m567 0 c-3 -10 -10 -38 -16 -63 -6 -25 -13 -53 -16 -62 -5 -16 -21
-18 -159 -18 l-154 0 -13 -47 -14 -48 153 -3 153 -3 -7 -27 c-3 -15 -12 -47
-18 -72 l-11 -45 -156 -3 -155 -2 -34 -128 -34 -127 -104 -3 -103 -3 6 28 c19
78 168 629 172 635 3 5 120 8 260 8 238 0 255 -1 250 -17z m563 0 c0 -10 -8
-45 -17 -78 l-17 -60 -77 -3 -77 -3 -11 -37 c-6 -20 -37 -134 -69 -252 l-57
-215 -102 -3 c-63 -2 -102 1 -102 7 0 6 29 119 65 251 36 132 65 243 65 245 0
3 -34 5 -75 5 -41 0 -75 4 -75 9 0 4 4 21 10 37 5 16 14 48 20 72 l11 42 254
0 c237 0 255 -1 254 -17z m567 0 c-3 -10 -10 -38 -16 -63 -6 -25 -13 -53 -16
-62 -5 -16 -21 -18 -159 -18 -157 0 -165 -2 -165 -41 0 -5 66 -9 150 -9 101 0
150 -4 150 -11 0 -6 -8 -40 -17 -75 l-17 -64 -153 0 c-150 0 -154 -1 -162 -22
l-8 -23 154 -3 c140 -2 154 -4 149 -20 -5 -18 -8 -29 -26 -99 l-11 -43 -254 0
c-197 0 -255 3 -255 13 0 15 139 537 146 549 3 4 120 8 260 8 238 0 255 -1
250 -17z m564 6 c0 -6 -14 -65 -32 -130 -31 -118 -32 -120 -79 -156 -27 -20
-45 -41 -42 -47 3 -6 15 -23 25 -38 23 -34 23 -31 -13 -170 l-32 -118 -103 0
c-57 0 -104 1 -104 3 0 1 15 57 34 125 37 135 37 136 -30 130 l-37 -3 -33
-123 c-18 -68 -35 -126 -37 -128 -2 -3 -49 -3 -104 -2 l-100 3 83 310 c46 171
86 320 89 333 l5 22 255 0 c183 0 255 -3 255 -11z m568 -1 c-3 -7 -15 -55 -28
-105 l-24 -93 -104 0 -104 0 6 25 c6 24 5 25 -43 25 -49 0 -50 -1 -60 -37 -19
-66 -25 -63 139 -63 83 0 150 -3 150 -7 -1 -5 -25 -96 -54 -203 l-53 -195
-256 -3 c-142 -1 -257 1 -257 4 0 4 12 52 27 106 l26 99 101 -3 c98 -3 101 -4
98 -25 -3 -21 1 -23 46 -23 l50 0 11 44 c6 25 11 47 11 50 0 3 -67 6 -150 6
-82 0 -150 3 -150 7 0 10 102 387 107 396 2 4 119 7 260 7 200 0 254 -3 251
-12z m-2992 -625 c-3 -10 -12 -44 -21 -75 l-16 -58 -104 0 -104 0 20 67 c10
38 19 71 19 75 0 5 48 8 106 8 96 0 105 -2 100 -17z m1694 6 c0 -6 -8 -40 -17
-75 l-17 -64 -259 0 c-241 0 -258 1 -253 18 2 9 12 43 20 75 l17 57 254 0
c177 0 255 -3 255 -11z"/>
<path d="M2126 5785 c-11 -8 -30 -15 -43 -15 -13 0 -23 -4 -23 -10 0 -5 -16
-12 -36 -16 l-37 -7 7 -170 c4 -94 11 -176 15 -182 5 -5 11 -52 13 -103 2 -56
8 -96 15 -100 6 -4 15 -20 18 -35 4 -15 11 -27 15 -27 5 0 11 -13 15 -30 4
-16 11 -30 16 -30 4 0 20 -24 35 -52 46 -93 55 -108 65 -108 5 0 9 -5 9 -10 0
-14 38 -67 68 -96 12 -12 22 -25 22 -31 0 -12 93 -103 106 -103 5 0 21 -13 35
-29 15 -17 38 -33 52 -36 14 -4 28 -13 31 -21 3 -8 17 -14 31 -14 14 0 28 -7
31 -15 5 -12 27 -15 114 -15 60 0 111 4 114 9 3 5 22 12 41 15 20 4 39 14 42
22 3 7 16 14 29 14 14 0 27 7 30 15 4 8 11 15 18 15 13 0 166 151 166 164 0
17 112 116 138 122 15 4 35 13 44 22 21 18 149 13 156 -6 2 -7 12 -12 22 -12
17 0 100 -72 100 -88 0 -4 23 -30 50 -57 28 -27 50 -55 50 -62 0 -8 7 -16 15
-19 8 -4 15 -12 15 -20 0 -8 5 -14 10 -14 13 0 50 -37 50 -50 0 -5 9 -10 20
-10 11 0 20 -7 20 -15 0 -10 10 -15 30 -15 20 0 30 -5 30 -15 0 -13 22 -15
135 -15 76 0 135 4 135 9 0 5 15 13 33 16 17 4 40 16 50 26 10 11 24 19 32 19
8 0 15 7 15 15 0 8 5 15 10 15 17 0 180 174 180 193 0 10 6 20 14 23 8 3 17
17 21 32 3 14 17 36 30 48 13 12 27 34 31 48 3 14 10 26 15 26 4 0 11 16 15
35 3 19 12 39 20 46 8 6 14 18 14 25 0 8 5 14 10 14 6 0 10 5 10 12 0 6 8 20
18 31 15 17 17 50 21 303 l3 284 -25 0 c-14 0 -29 5 -32 10 -9 15 -222 13
-227 -2 -3 -7 -38 -13 -99 -16 -52 -2 -99 -9 -106 -14 -7 -5 -66 -12 -133 -15
-66 -3 -120 -9 -120 -13 0 -3 -80 -12 -177 -19 -103 -8 -181 -18 -185 -24 -9
-15 -496 -16 -506 -1 -4 6 -51 16 -105 22 -54 6 -105 16 -113 23 -8 6 -62 14
-124 17 -60 2 -110 9 -110 13 0 5 -24 9 -53 9 -29 0 -61 6 -72 14 -11 8 -55
17 -98 21 -42 4 -77 11 -77 16 0 16 -193 10 -214 -6z m622 -371 c12 -8 22 -22
22 -30 0 -8 5 -14 10 -14 16 0 110 -91 110 -106 0 -8 7 -14 15 -14 13 0 15
-39 15 -290 0 -275 -1 -291 -20 -310 -11 -11 -31 -22 -45 -26 -14 -3 -25 -10
-25 -15 0 -5 -27 -9 -60 -9 l-60 0 0 120 c0 73 -4 120 -10 120 -6 0 -10 105
-10 295 0 276 1 295 18 295 10 0 28 -7 40 -16z m268 -264 c20 -22 42 -40 49
-40 7 0 15 -10 19 -22 11 -41 7 -268 -5 -291 -21 -39 -77 -89 -96 -85 -17 3
-18 20 -21 241 -1 156 1 237 8 237 5 0 26 -18 46 -40z"/>
<path d="M5645 2578 c-11 -33 -35 -123 -35 -130 0 -4 33 -8 73 -8 l73 0 17 68
c9 37 17 70 17 75 0 13 -140 8 -145 -5z"/>
<path d="M6466 2582 c-5 -8 -36 -126 -36 -136 0 -4 32 -6 72 -4 l72 3 12 40
c6 22 15 55 18 73 l8 32 -71 0 c-38 0 -72 -3 -75 -8z"/>
</g>
</svg>
